<svg width="16" height="19" viewBox="0 0 16 19" fill="none" xmlns="http://www.w3.org/2000/svg">
    <path d="M15.5 5.5C15.5 6.80673 14.73 8.04451 13.3736 8.97707C12.0194 9.9081 10.121 10.5 8 10.5C5.87896 10.5 3.98064 9.9081 2.62641 8.97707C1.26997 8.04451 0.5 6.80673 0.5 5.5C0.5 4.19327 1.26997 2.95549 2.62641 2.02293C3.98064 1.0919 5.87896 0.5 8 0.5C10.121 0.5 12.0194 1.0919 13.3736 2.02293C14.73 2.95549 15.5 4.19327 15.5 5.5Z" fill="#017C6B" stroke="#017C6B" />
    <rect x="0.5" y="6.5" width="15" height="12" fill="#017C6B" stroke="#017C6B" />
    <rect x="2.5" y="5.5" width="4" height="11" stroke="white" />
    <rect x="9.5" y="5.5" width="4" height="11" stroke="white" />
    <line x1="9" y1="11.5" x2="14" y2="11.5" stroke="white" />
    <line x1="2" y1="11.5" x2="7" y2="11.5" stroke="white" />
</svg>
